<svg width="32" height="32" viewBox="0 0 32 32" fill="none" xmlns="http://www.w3.org/2000/svg">
<path d="M10.476 12.3221C12.1507 11.7658 13.3611 10.1599 13.3611 8.26563C13.3611 5.91004 11.4894 4.00045 9.18056 4.00045C6.8717 4.00045 5 5.91004 5 8.26563C5 10.6212 6.8717 12.5308 9.18056 12.5308C9.63271 12.5308 10.0681 12.4576 10.476 12.3221ZM10.476 12.3221C6.08009 21.788 10.21 27.1543 15.8669 27.1543C21.7221 27.1543 26.7886 21.1536 19.9306 11.7663M18.1389 8.26563C18.1389 5.91004 20.0106 4.00045 22.3194 4.00045C24.6283 4.00045 26.5 5.91004 26.5 8.26563C26.5 10.6212 24.6283 12.5308 22.3194 12.5308C20.0106 12.5308 18.1389 10.6212 18.1389 8.26563Z" stroke="black" style="stroke:black;stroke-opacity:1;" stroke-width="1.65385" stroke-linecap="round"/>
</svg>
