<svg width="32" height="32" viewBox="0 0 32 32" fill="none" xmlns="http://www.w3.org/2000/svg">
<circle cx="16.2363" cy="14.7363" r="5.48633" stroke="black" style="stroke:black;stroke-opacity:1;" stroke-width="1.5" stroke-linecap="round"/>
<circle cx="16.2363" cy="14.7363" r="5.48633" stroke="black" style="stroke:black;stroke-opacity:1;" stroke-width="1.5" stroke-linecap="round"/>
<path d="M20.6667 4C20.6667 4.63472 20.5416 5.26323 20.2988 5.84964C20.0559 6.43604 19.6998 6.96887 19.251 7.41768C18.8022 7.8665 18.2694 8.22252 17.683 8.46542C17.0966 8.70832 16.4681 8.83333 15.8333 8.83333C15.1986 8.83333 14.5701 8.70832 13.9837 8.46542C13.3973 8.22252 12.8645 7.8665 12.4157 7.41768C11.9668 6.96887 11.6108 6.43604 11.3679 5.84964C11.125 5.26323 11 4.63472 11 4" stroke="black" style="stroke:black;stroke-opacity:1;" stroke-width="1.5" stroke-linecap="round"/>
<path d="M20.6667 4C20.6667 4.63472 20.5416 5.26323 20.2988 5.84964C20.0559 6.43604 19.6998 6.96887 19.251 7.41768C18.8022 7.8665 18.2694 8.22252 17.683 8.46542C17.0966 8.70832 16.4681 8.83333 15.8333 8.83333C15.1986 8.83333 14.5701 8.70832 13.9837 8.46542C13.3973 8.22252 12.8645 7.8665 12.4157 7.41768C11.9668 6.96887 11.6108 6.43604 11.3679 5.84964C11.125 5.26323 11 4.63472 11 4" stroke="black" style="stroke:black;stroke-opacity:1;" stroke-width="1.5" stroke-linecap="round"/>
<path d="M15.9407 20.5V23.9308M15.9407 27.3615V23.9308M15.9407 23.9308H18.8813M15.9407 23.9308H13" stroke="black" style="stroke:black;stroke-opacity:1;" stroke-width="1.5" stroke-linecap="round"/>
</svg>
