<svg width="18" height="18" viewBox="0 0 18 18" fill="none" xmlns="http://www.w3.org/2000/svg">
<path d="M4.40308 3.00466C4.45798 3.0044 4.45798 3.0044 4.51399 3.00413C4.63591 3.00366 4.75783 3.00389 4.87976 3.00413C4.96746 3.00394 5.05517 3.00372 5.14288 3.00345C5.35595 3.00289 5.56901 3.00286 5.78209 3.00303C5.95535 3.00316 6.12862 3.00311 6.30188 3.00294C6.32659 3.00292 6.3513 3.00289 6.37676 3.00287C6.42697 3.00282 6.47717 3.00277 6.52738 3.00271C6.99762 3.00227 7.46786 3.00244 7.93809 3.00282C8.36778 3.00314 8.79747 3.00272 9.22715 3.00194C9.66899 3.00114 10.1108 3.00083 10.5527 3.00104C10.8005 3.00116 11.0483 3.00109 11.2961 3.00051C11.507 3.00003 11.7179 3.00001 11.9289 3.00058C12.0364 3.00086 12.1438 3.00086 12.2513 3.00043C12.3682 3 12.4849 3.00037 12.6018 3.00095C12.6353 3.00064 12.6689 3.00032 12.7035 3C13.0522 3.00353 13.3688 3.11823 13.6366 3.34422C13.8969 3.61377 14.0006 3.95891 14 4.32753C14 4.38655 14 4.38655 14 4.44676C13.9998 4.4897 13.9997 4.53265 13.9995 4.57689C13.9995 4.62319 13.9994 4.66949 13.9994 4.71579C13.9993 4.84287 13.999 4.96995 13.9986 5.09703C13.9983 5.23413 13.9982 5.37124 13.998 5.50835C13.9975 5.808 13.9969 6.10766 13.9961 6.40732C13.9957 6.59438 13.9953 6.78144 13.9949 6.9685C13.9937 7.48635 13.9926 8.0042 13.9912 8.52205C13.9911 8.55518 13.991 8.58831 13.9909 8.62244C13.9908 8.65564 13.9907 8.68885 13.9906 8.72306C13.9904 8.79035 13.9902 8.85764 13.9901 8.92493C13.9899 8.975 13.9899 8.975 13.9898 9.02607C13.9883 9.5674 13.9873 10.1087 13.9865 10.6501C13.9856 11.2057 13.9844 11.7614 13.9828 12.3171C13.982 12.6291 13.9812 12.9412 13.9809 13.2532C13.9806 13.5188 13.98 13.7844 13.979 14.0499C13.9785 14.1855 13.9781 14.321 13.9781 14.4565C13.9782 14.5806 13.9778 14.7046 13.977 14.8286C13.9768 14.8948 13.9769 14.9611 13.9772 15.0273C13.9767 15.0862 13.9767 15.0862 13.9762 15.1463C13.9761 15.1802 13.976 15.2141 13.9759 15.249C13.9571 15.3885 13.8914 15.4744 13.8008 15.5789C13.6481 15.6657 13.5028 15.653 13.33 15.6515C13.273 15.6518 13.273 15.6518 13.2148 15.6521C13.1093 15.6524 13.0038 15.6522 12.8984 15.6517C12.7846 15.6514 12.6708 15.6518 12.557 15.6521C12.334 15.6525 12.1111 15.6523 11.8881 15.6518C11.6283 15.6512 11.3684 15.6513 11.1086 15.6515C10.6447 15.6517 10.1808 15.6512 9.7169 15.6504C9.26725 15.6496 8.81761 15.6494 8.36795 15.6497C7.87813 15.6501 7.3883 15.6502 6.89848 15.6497C6.84616 15.6496 6.79385 15.6496 6.74153 15.6495C6.70292 15.6495 6.70292 15.6495 6.66354 15.6495C6.48266 15.6493 6.30178 15.6494 6.12091 15.6495C5.90013 15.6497 5.67935 15.6495 5.45857 15.6488C5.34604 15.6485 5.23351 15.6483 5.12098 15.6486C4.99866 15.6488 4.87636 15.6484 4.75404 15.6478C4.71891 15.648 4.68379 15.6482 4.64761 15.6484C4.26598 15.6452 3.94677 15.5622 3.63389 15.3409C3.60267 15.3193 3.60267 15.3193 3.57082 15.2973C3.25686 15.0559 3.06851 14.6471 3.01281 14.2622C3.00998 14.2018 3.0086 14.1413 3.00851 14.0808C3.00839 14.0454 3.00826 14.0099 3.00813 13.9733C3.00816 13.9347 3.00819 13.8961 3.00822 13.8563C3.00812 13.815 3.00803 13.7738 3.00793 13.7312C3.00766 13.6168 3.0076 13.5024 3.00758 13.388C3.00752 13.2645 3.00727 13.1411 3.00705 13.0176C3.00661 12.7477 3.00641 12.4778 3.00627 12.2079C3.00618 12.0393 3.00604 11.8707 3.00589 11.7021C3.00549 11.2351 3.00516 10.7681 3.00505 10.301C3.00504 10.2711 3.00503 10.2413 3.00502 10.2105C3.00502 10.1805 3.00501 10.1506 3.005 10.1197C3.00499 10.059 3.00497 9.99837 3.00496 9.93769C3.00495 9.90759 3.00494 9.87749 3.00494 9.84647C3.00481 9.35886 3.00424 8.87125 3.00348 8.38363C3.0027 7.8827 3.00229 7.38177 3.00225 6.88084C3.00222 6.59971 3.00204 6.31858 3.00144 6.03745C3.00094 5.79804 3.00077 5.55863 3.00104 5.31923C3.00117 5.19717 3.00114 5.07511 3.00068 4.95305C3.00019 4.82049 3.00046 4.68794 3.0008 4.55537C3.00053 4.51713 3.00027 4.47888 3 4.43947C3.00233 4.05116 3.08909 3.6562 3.35502 3.35865C3.65769 3.07374 3.99836 3.0023 4.40308 3.00466ZM3.8954 3.99799C3.86447 4.0908 3.85865 4.1473 3.85869 4.24341C3.85863 4.27378 3.85856 4.30415 3.85849 4.33544C3.85859 4.36886 3.85869 4.40228 3.85878 4.43671C3.85876 4.47217 3.85873 4.50763 3.8587 4.54416C3.85864 4.66357 3.85883 4.78297 3.859 4.90238C3.85901 4.98774 3.85901 5.0731 3.85899 5.15845C3.85897 5.34253 3.85907 5.52661 3.85926 5.71068C3.85952 5.97683 3.85961 6.24297 3.85965 6.50912C3.85972 6.9409 3.85994 7.37268 3.86025 7.80447C3.86055 8.22395 3.86078 8.64343 3.86092 9.06291C3.86093 9.08876 3.86094 9.11461 3.86094 9.14124C3.86099 9.27092 3.86103 9.40059 3.86107 9.53027C3.86141 10.6064 3.86198 11.6824 3.86271 12.7585C3.88243 12.7518 3.90216 12.7451 3.92247 12.7382C3.9486 12.7294 3.97472 12.7206 4.00164 12.7115C4.04032 12.6985 4.04032 12.6985 4.07979 12.6851C4.20486 12.6451 4.31137 12.6237 4.44312 12.6233C4.47447 12.6231 4.50582 12.6229 4.53811 12.6227C4.57245 12.6227 4.6068 12.6226 4.64218 12.6226C4.67873 12.6225 4.71529 12.6223 4.75295 12.6221C4.87587 12.6216 4.99878 12.6213 5.1217 12.6211C5.20964 12.6208 5.29758 12.6204 5.38552 12.6201C5.57507 12.6194 5.76462 12.6188 5.95418 12.6183C6.22824 12.6175 6.5023 12.6166 6.77636 12.6156C7.22099 12.6141 7.66563 12.6127 8.11027 12.6114C8.54221 12.6101 8.97415 12.6087 9.4061 12.6073C9.44603 12.6071 9.44603 12.6071 9.48677 12.607C9.62032 12.6065 9.75387 12.6061 9.88742 12.6057C10.9955 12.6019 12.1036 12.5984 13.2117 12.5951C13.2131 11.5465 13.2143 10.498 13.215 9.44939C13.2151 9.32554 13.2152 9.20169 13.2152 9.07784C13.2153 9.05318 13.2153 9.02853 13.2153 9.00312C13.2156 8.60413 13.2161 8.20513 13.2167 7.80614C13.2173 7.3966 13.2177 6.98706 13.2178 6.57752C13.2179 6.3249 13.2182 6.07228 13.2187 5.81967C13.2191 5.62582 13.2191 5.43197 13.219 5.23812C13.2191 5.1587 13.2192 5.07928 13.2194 4.99986C13.2198 4.89131 13.2197 4.78277 13.2195 4.67423C13.2197 4.64291 13.2199 4.61158 13.2201 4.57931C13.2191 4.35109 13.2092 4.12819 13.0829 3.93262C12.9847 3.83731 12.9026 3.83045 12.7714 3.82974C12.7414 3.8295 12.7113 3.82926 12.6803 3.82902C12.6472 3.82892 12.6141 3.82882 12.58 3.82872C12.5449 3.82849 12.5098 3.82826 12.4736 3.82802C12.3553 3.82728 12.2371 3.82678 12.1188 3.82628C12.0342 3.82581 11.9497 3.82532 11.8651 3.82482C11.635 3.8235 11.4048 3.82243 11.1746 3.82141C11.0308 3.82077 10.8871 3.82008 10.7433 3.81939C10.3452 3.81747 9.94717 3.81562 9.54909 3.814C9.52361 3.81389 9.49812 3.81379 9.47187 3.81368C9.44632 3.81358 9.42078 3.81347 9.39446 3.81337C9.3427 3.81315 9.29094 3.81294 9.23917 3.81273C9.2135 3.81263 9.18782 3.81252 9.16137 3.81241C8.74557 3.8107 8.32978 3.80854 7.91399 3.8062C7.48701 3.80379 7.06004 3.80176 6.63306 3.8001C6.39336 3.79916 6.15367 3.79806 5.91398 3.79655C5.68844 3.79513 5.46291 3.79422 5.23737 3.79365C5.15463 3.79336 5.07189 3.7929 4.98915 3.79226C4.8761 3.79141 4.76306 3.79117 4.65 3.79109C4.61735 3.7907 4.5847 3.79031 4.55105 3.78991C4.31676 3.79068 4.05517 3.80531 3.8954 3.99799ZM3.99347 13.6738C3.87516 13.8737 3.83545 14.0646 3.86271 14.2949C3.91903 14.4663 4.01071 14.6132 4.15691 14.7199C4.41162 14.8067 4.65792 14.8321 4.92521 14.8297C4.96092 14.8298 4.99663 14.8299 5.03342 14.83C5.15191 14.8301 5.2704 14.8296 5.3889 14.8291C5.4743 14.829 5.5597 14.829 5.6451 14.8291C5.82837 14.8291 6.01164 14.8288 6.1949 14.8283C6.45987 14.8275 6.72484 14.8272 6.98981 14.8271C7.4198 14.8269 7.84979 14.8262 8.27978 14.8253C8.69725 14.8244 9.11472 14.8237 9.53219 14.8233C9.55796 14.8233 9.58373 14.8233 9.61029 14.8232C9.73959 14.8231 9.86889 14.823 9.99819 14.8229C11.0693 14.8218 12.1405 14.8201 13.2117 14.8179C13.2117 14.3433 13.2117 13.8686 13.2117 13.3796C12.1611 13.3789 11.1106 13.3783 10.0601 13.378C9.93596 13.3779 9.81179 13.3779 9.68761 13.3778C9.66289 13.3778 9.63817 13.3778 9.61271 13.3778C9.21306 13.3777 8.81341 13.3774 8.41376 13.3771C8.00334 13.3768 7.59291 13.3766 7.18249 13.3765C6.92947 13.3765 6.67645 13.3764 6.42343 13.3761C6.22904 13.3759 6.03465 13.3759 5.84026 13.3759C5.76079 13.3759 5.68132 13.3759 5.60185 13.3757C4.73618 13.3214 4.73618 13.3214 3.99347 13.6738Z" fill="black" style="fill:black;fill-opacity:1;"/>
<path d="M8.68037 6.09491C8.75588 6.18597 8.78014 6.24897 8.80135 6.36437C8.84313 6.56721 8.91158 6.74403 9.08482 6.86909C9.28347 6.99504 9.47368 7.04112 9.70769 6.99893C9.93688 6.93952 10.0703 6.79442 10.2125 6.61475C10.2985 6.50923 10.355 6.46669 10.4937 6.45098C10.6078 6.46258 10.702 6.49446 10.7815 6.58038C10.8473 6.68042 10.8609 6.78235 10.8388 6.89917C10.7405 7.16379 10.519 7.36499 10.2889 7.51508C10.3128 7.51723 10.3367 7.51939 10.3614 7.52161C10.758 7.56051 11.0875 7.67838 11.3667 7.97701C11.514 8.15938 11.6179 8.34952 11.6967 8.57093C11.7042 8.59194 11.7117 8.61295 11.7194 8.6346C11.8742 9.17012 11.739 9.73847 11.4876 10.2178C11.2308 10.667 10.8294 11.0129 10.3274 11.1514C10.064 11.2006 9.77629 11.1867 9.53953 11.0529C9.45979 10.9935 9.42573 10.9332 9.40901 10.8366C9.40525 10.7079 9.43203 10.6185 9.50911 10.5157C9.56478 10.4615 9.6107 10.4422 9.68818 10.4356C9.70902 10.4359 9.72986 10.4362 9.75134 10.4365C9.77224 10.4367 9.79313 10.4368 9.81466 10.437C9.87095 10.4407 9.87095 10.4407 9.93694 10.4627C10.1848 10.4904 10.3824 10.3916 10.5748 10.2427C10.7744 10.0768 10.8991 9.84329 10.9928 9.60478C11.0034 9.57828 11.0034 9.57828 11.0142 9.55125C11.0978 9.30193 11.1084 8.9432 10.9928 8.70291C10.8889 8.49612 10.768 8.33356 10.544 8.2555C10.3298 8.20105 10.1341 8.26127 9.94166 8.36058C9.78765 8.45277 9.65768 8.56926 9.5294 8.69353C9.49819 8.72375 9.46663 8.75359 9.43505 8.78342C9.26002 8.95248 9.10417 9.13817 8.96907 9.34082C8.98246 9.39769 8.98246 9.39769 9.00894 9.45768C9.14002 9.77844 9.0873 10.131 8.9622 10.4462C8.86402 10.6658 8.74156 10.8407 8.57313 11.0126C8.55361 11.0333 8.55361 11.0333 8.53369 11.0544C8.26289 11.3181 7.82147 11.4562 7.45129 11.4525C6.99073 11.4263 6.62464 11.236 6.30745 10.9026C5.93252 10.4798 5.72244 9.9403 5.55956 9.40681C5.55501 9.39201 5.55045 9.37721 5.54576 9.36196C5.49724 9.19951 5.47682 9.06257 5.53756 8.90088C5.59035 8.80546 5.65324 8.76748 5.75427 8.73462C5.86443 8.71198 5.95049 8.73263 6.05037 8.7854C6.16585 8.88208 6.19177 8.99394 6.22497 9.1346C6.33984 9.59004 6.51073 10.0689 6.83538 10.4187C6.84933 10.4346 6.86328 10.4505 6.87765 10.467C7.04629 10.6498 7.24715 10.7354 7.49528 10.7486C7.7177 10.7351 7.95621 10.6393 8.11687 10.4847C8.26328 10.3166 8.37475 10.0873 8.38478 9.86187C8.37122 9.7476 8.34206 9.66498 8.26655 9.57729C8.06299 9.46096 7.81566 9.45931 7.58722 9.44702C7.38046 9.43372 7.19947 9.40829 7.0416 9.26598C6.96135 9.17273 6.9549 9.0838 6.95808 8.96404C6.98232 8.7991 7.09198 8.70314 7.21895 8.6053C7.30735 8.54215 7.39755 8.48225 7.48848 8.42282C7.82026 8.2146 7.82026 8.2146 8.01341 7.88825C8.02678 7.81529 8.02557 7.76342 7.99984 7.6938C7.94527 7.63395 7.9032 7.62361 7.82524 7.60307C7.52362 7.59132 7.26924 7.71012 7.00826 7.84503C6.99438 7.85219 6.98049 7.85935 6.96619 7.86673C6.93652 7.88218 6.90698 7.89786 6.87754 7.91373C6.75699 7.97722 6.66415 7.9995 6.52742 7.97701C6.42093 7.92574 6.35798 7.86393 6.30745 7.75705C6.29054 7.64121 6.28783 7.55112 6.34466 7.44677C6.58215 7.149 7.15552 6.96339 7.51969 6.915C7.79232 6.88491 8.0299 6.91387 8.28717 7.00915C8.27815 6.99055 8.26914 6.97195 8.25985 6.95278C8.14234 6.7054 8.07557 6.49445 8.1112 6.21726C8.17818 6.09767 8.23908 6.03954 8.37103 6.00142C8.49546 5.9941 8.58443 6.01357 8.68037 6.09491ZM8.66112 7.42709C8.66429 7.4436 8.66747 7.4601 8.67074 7.4771C8.73872 7.85195 8.69414 8.15668 8.48514 8.48294C8.39316 8.6096 8.2838 8.70271 8.15519 8.7909C8.21868 8.82555 8.27691 8.84507 8.34766 8.85964C8.36524 8.86332 8.38282 8.86701 8.40094 8.87081C8.42084 8.87481 8.42084 8.87481 8.44115 8.87889C8.52523 8.78454 8.60682 8.68879 8.68586 8.59018C8.93891 8.28032 9.20873 8.02271 9.54597 7.8051C9.58129 7.78224 9.61618 7.75871 9.65098 7.73505C9.65098 7.72779 9.65098 7.72053 9.65098 7.71305C9.62463 7.71115 9.59829 7.70925 9.57115 7.70729C9.23526 7.6797 8.95303 7.6037 8.66112 7.42709Z" fill="black" style="fill:black;fill-opacity:1;"/>
<path d="M9.60799 6.00519C9.68793 6.03751 9.7301 6.08724 9.77919 6.15737C9.81107 6.25302 9.80974 6.33504 9.77562 6.42844C9.73089 6.4963 9.68057 6.53957 9.60799 6.57586C9.50903 6.58572 9.42469 6.58766 9.33335 6.54614C9.25506 6.47166 9.21371 6.40819 9.2002 6.30004C9.21297 6.19786 9.23798 6.12589 9.31433 6.05512C9.40963 5.99159 9.49546 5.99622 9.60799 6.00519Z" fill="black" style="fill:black;fill-opacity:1;"/>
</svg>
