<svg width="32" height="32" viewBox="0 0 32 32" fill="none" xmlns="http://www.w3.org/2000/svg">
<path d="M21.2787 19.1423C19.6819 19.6728 18.5278 21.2039 18.5278 23.0101C18.5278 25.2562 20.3124 27.0769 22.5139 27.0769C24.7154 27.0769 26.5 25.2562 26.5 23.0101C26.5 20.7641 24.7154 18.9433 22.5139 18.9433C22.0828 18.9433 21.6676 19.0131 21.2787 19.1423ZM21.2787 19.1423C25.4701 10.1167 21.5323 5 16.1385 5C10.5557 5 5.72483 10.7216 12.2639 19.6723M13.9722 23.0101C13.9722 25.2562 12.1876 27.0769 9.98611 27.0769C7.78464 27.0769 6 25.2562 6 23.0101C6 20.7641 7.78464 18.9433 9.98611 18.9433C12.1876 18.9433 13.9722 20.7641 13.9722 23.0101Z" stroke="black" style="stroke:black;stroke-opacity:1;" stroke-width="1.57692" stroke-linecap="round"/>
</svg>
